<svg width="70" height="70" viewBox="0 0 70 70" fill="none" xmlns="http://www.w3.org/2000/svg">
<path d="M0 0V70H70V0H0ZM37.0266 59.6473C35.9934 61.7467 34.0211 63.126 31.7358 63.7918C28.224 64.5982 24.8651 64.1385 22.3664 62.6388C20.6942 61.6129 19.3883 60.0337 18.5018 58.2142L23.833 54.9494C23.8795 54.969 24.0195 55.2222 24.2066 55.5492C24.8864 56.6882 25.4727 57.4946 26.6252 58.0608C27.7575 58.4472 30.2434 58.6942 31.2032 56.7017C31.7895 55.6881 31.603 52.43 31.603 48.8253C31.6025 43.1609 31.6288 37.52 31.6288 31.92H38.1858C38.1858 38.08 38.2194 43.9141 38.1858 49.9251C38.1998 53.6099 38.5196 56.8949 37.0266 59.6473ZM64.2281 57.7948C61.9489 65.5911 49.2414 65.8442 44.1633 60.6934C43.0903 59.481 42.4178 58.8476 41.7777 57.4482C44.4763 55.8958 44.4763 55.8958 47.1022 54.3766C48.5285 56.569 49.8473 57.7746 52.22 58.268C55.4389 58.6611 58.6774 57.5551 57.951 54.1363C57.2046 51.3442 51.3598 50.6649 47.3822 47.679C43.344 44.9669 42.3976 38.3768 45.7162 34.6114C46.8222 33.2186 48.7082 32.1793 50.6873 31.6798L52.7526 31.4126C56.7179 31.3326 59.1965 32.3798 61.0159 34.4114C61.5222 34.9244 61.9354 35.4777 62.7082 36.6766C60.5959 38.0229 60.6026 38.01 57.577 39.9689C56.9307 38.5767 55.8583 37.7031 54.7249 37.3234C52.9654 36.7903 50.7466 37.3699 50.2863 39.2291C50.1267 39.802 50.1598 40.3351 50.4134 41.2815C51.1263 42.9072 53.5186 43.6139 55.6646 44.6001C61.8419 47.1055 63.9279 49.7918 64.4409 52.9894C64.9348 55.7424 64.3216 57.5282 64.2281 57.7948Z" fill="#444444"/>
</svg>
