<svg width="52" height="76" viewBox="0 0 52 76" fill="none" xmlns="http://www.w3.org/2000/svg">
<path d="M25.9989 3H14.3329C11.2384 3 8.27061 4.22929 6.08247 6.41743C3.89433 8.60557 2.66504 11.5733 2.66504 14.6678C2.66504 17.7623 3.89433 20.7301 6.08247 22.9182C8.27061 25.1064 11.2384 26.3357 14.3329 26.3357H25.9989M25.9989 3V26.3357M25.9989 3L37.665 3C40.7595 3 43.7273 4.22929 45.9154 6.41743C48.1036 8.60557 49.3329 11.5733 49.3329 14.6678C49.3329 17.7623 48.1036 20.7301 45.9154 22.9182C43.7273 25.1064 40.7595 26.3357 37.665 26.3357H25.9989M25.9989 26.3322H14.3329C11.2384 26.3322 8.27061 27.5615 6.08247 29.7496C3.89433 31.9378 2.66504 34.9055 2.66504 38C2.66504 41.0945 3.89433 44.0623 6.08247 46.2505C8.27061 48.4386 11.2384 49.6679 14.3329 49.6679H25.9989V26.3322ZM49.3346 38.0018C49.3346 41.0963 48.1053 44.064 45.9172 46.2522C43.729 48.4403 40.7613 49.6696 37.6668 49.6696C34.5723 49.6696 31.6045 48.4403 29.4164 46.2522C27.2282 44.064 25.9989 41.0963 25.9989 38.0018C25.9989 34.9073 27.2282 31.9395 29.4164 29.7514C31.6045 27.5632 34.5723 26.3339 37.6668 26.3339C40.7613 26.3339 43.729 27.5632 45.9172 29.7514C48.1053 31.9395 49.3346 34.9073 49.3346 38.0018ZM14.3329 49.6713H25.9989V61.3374C25.9982 63.6446 25.3135 65.8998 24.0312 67.8178C22.7488 69.7358 20.9266 71.2305 18.7949 72.113C16.6631 72.9954 14.3175 73.2259 12.0548 72.7754C9.79201 72.3249 7.71364 71.2135 6.08246 69.5818C4.45128 67.9502 3.34054 65.8715 2.89068 63.6086C2.44083 61.3457 2.67206 59.0002 3.55514 56.8687C4.43822 54.7372 5.9335 52.9154 7.8519 51.6337C9.7703 50.352 12.0257 49.6713 14.3329 49.6713Z" stroke="#444444" stroke-width="5"/>
</svg>
