<svg width="51" height="70" viewBox="0 0 51 70" fill="none" xmlns="http://www.w3.org/2000/svg">
<path d="M37.3825 49.175C35.2825 50.9717 31.0913 52.1938 26.2642 52.1938C20.3375 52.1938 15.3705 50.3504 14.0521 47.8683C13.5825 49.2917 13.4746 50.9192 13.4746 51.9575C13.4746 51.9575 13.1655 57.0617 16.715 60.6142C16.715 58.7708 18.2113 57.2746 20.0546 57.2746C23.2134 57.2746 23.2105 60.0308 23.2075 62.2679V62.4692C23.2075 65.8642 25.2813 68.7721 28.233 70C27.7786 69.0648 27.5432 68.0385 27.5446 66.9988C27.5446 63.7613 29.4463 62.5567 31.6571 61.1567C33.413 60.0396 35.3671 58.8029 36.7117 56.315C37.4368 54.9771 37.8157 53.4792 37.8142 51.9575C37.8146 51.0133 37.669 50.0747 37.3825 49.175ZM35.8571 1.75C36.4288 2.46167 36.7205 3.41833 37.3038 5.33458L50.0438 47.18C45.2585 44.6968 40.1225 42.9579 34.813 42.0233L26.5209 14C26.4545 13.7765 26.3176 13.5805 26.1306 13.4413C25.9435 13.3021 25.7164 13.2272 25.4833 13.2279C25.2501 13.2286 25.0235 13.3047 24.8372 13.4449C24.651 13.5852 24.5151 13.782 24.4501 14.0058L16.2542 42.0146C10.9211 42.9451 5.76193 44.6871 0.956299 47.18L13.7575 5.32875C14.3409 3.41542 14.6325 2.45875 15.2071 1.75C15.7119 1.12418 16.3686 0.638163 17.1146 0.338333C17.9605 0 18.958 0 20.9588 0H30.1026C32.1034 0 33.1067 0 33.9525 0.34125C34.6961 0.641233 35.3535 1.12614 35.8571 1.75Z" fill="#444444"/>
</svg>
