<svg width="114" height="76" viewBox="0 0 114 76" fill="none" xmlns="http://www.w3.org/2000/svg">
<path d="M57.0001 3C42.479 3 33.4101 10.7778 29.7779 26.3333C35.2223 18.5556 41.5768 15.6389 48.8334 17.5833C52.979 18.6956 55.9346 21.9156 59.209 25.4778C64.5523 31.28 70.7279 38 84.2223 38C98.7434 38 107.812 30.2222 111.445 14.6667C106 22.4444 99.6457 25.3611 92.389 23.4167C88.2434 22.3044 85.2879 19.0844 82.0134 15.5222C76.6701 9.72 70.4946 3 57.0001 3ZM29.7779 38C15.2568 38 6.18789 45.7778 2.55566 61.3333C8.00011 53.5556 14.3546 50.6389 21.6112 52.5833C25.7568 53.6956 28.7123 56.9156 31.9868 60.4778C37.3301 66.28 43.5057 73 57.0001 73C71.5212 73 80.5901 65.2222 84.2223 49.6667C78.7779 57.4444 72.4234 60.3611 65.1668 58.4167C61.0212 57.3044 58.0657 54.0844 54.7912 50.5222C49.4479 44.72 43.2723 38 29.7779 38Z" stroke="#444444" stroke-width="5" stroke-linejoin="round"/>
</svg>
