<svg width="72" height="70" viewBox="0 0 72 70" fill="none" xmlns="http://www.w3.org/2000/svg">
<path d="M70.9021 68.3427L69.4183 66.9037C68.0122 65.0365 66.2035 63.3962 64.3051 62.0344C62.7912 60.9476 59.3926 59.4797 58.7608 57.7186L58.6445 57.608C59.7182 57.4866 60.9717 57.0986 61.9626 56.8326C63.6267 56.3868 65.0004 56.502 66.719 56.0584C67.4938 55.8372 68.3633 55.6154 68.9305 55.3942V54.9518C68.3633 54.0608 67.5539 52.881 66.6067 52.0745C64.1287 49.9645 61.4787 47.8563 58.6938 46.098C57.1494 45.1235 55.2674 44.49 53.6311 43.6636C53.0803 43.3851 52.1269 43.2404 51.7627 42.7776C50.9023 41.6818 50.4423 40.2922 49.7787 39.0154C48.3897 36.34 47.0284 33.4184 45.7976 30.6034C44.9581 28.684 44.4119 26.7919 43.3649 25.0699C38.3396 16.8076 32.9314 11.8214 24.5528 6.91974C22.769 5.87724 20.6228 5.46603 18.354 4.9272C17.1379 4.85403 15.9202 4.77973 14.703 4.70543C13.9594 4.39574 13.1863 3.48653 12.4898 3.04526C9.71284 1.2915 2.59288 -2.52287 0.536809 2.49224C-0.761494 5.65774 2.4766 8.74554 3.63481 10.3501C4.44873 11.4743 5.48953 12.7363 6.06977 14.0017C6.45262 14.8338 6.51785 15.6681 6.84512 16.5478C7.64939 18.7156 8.34874 21.074 9.39011 23.0768C9.91589 24.0909 10.4956 25.1584 11.1609 26.0647C11.5681 26.6212 12.2669 26.8662 12.3775 27.7249C11.6946 28.6812 11.6555 30.1661 11.2715 31.3776C9.54155 36.8312 10.195 43.6103 12.7104 47.6464C13.4818 48.8863 15.3002 51.5436 17.801 50.5238C19.9881 49.6333 19.6308 46.8722 20.2564 44.4367C20.3976 43.8853 20.1514 43.4792 20.7186 43.1089V43.2195C21.299 44.5659 21.9198 45.8944 22.5802 47.2034C24.0549 49.5783 26.4875 52.0597 28.7047 53.7341C29.8544 54.6024 30.9281 56.1032 32.0625 56.6114V56.5541H32.1878C31.9003 55.987 31.4493 55.8922 31.0818 55.5309C30.2157 54.6824 29.252 53.6127 28.5368 52.64C26.5199 49.9021 24.7378 46.8988 23.1139 43.7793C22.338 42.2898 21.6636 40.6433 21.0102 39.1277C20.7589 38.5435 20.7617 37.6576 20.2365 37.3553C19.5202 38.4658 18.4657 39.3631 17.9116 40.675C17.0262 42.7714 16.9122 45.3283 16.5838 47.9788C16.3893 48.048 16.476 48.0003 16.362 48.0888C14.8204 47.7173 14.2793 46.1309 13.7059 44.769C12.2567 41.3262 11.9878 35.783 13.2629 31.8206C13.593 30.7946 15.0841 27.5661 14.4801 26.6183C14.192 25.6739 13.2413 25.1266 12.7099 24.4046C12.0514 23.5118 11.3946 22.3366 10.9385 21.3054C9.75254 18.622 9.19953 15.6086 7.95057 12.8951C7.35332 11.5979 6.34429 10.2849 5.51562 9.13236C4.59847 7.85448 3.57072 6.9135 2.85889 5.36904C2.60649 4.82 2.26277 3.94085 2.63769 3.3765C2.7568 2.99591 2.92525 2.8371 3.30187 2.71288C3.9445 2.21772 5.73115 2.87737 6.40044 3.15472C8.17518 3.89207 9.65669 4.5727 11.1603 5.56869C11.8812 6.0474 12.6118 6.64069 13.4841 7.20788H14.4801C16.0382 7.20788 17.7834 7.33947 19.2394 7.78188C21.8116 8.56403 24.1172 9.79087 26.2113 11.113C32.59 15.1412 37.8053 20.88 41.3735 27.7192C41.9475 28.8207 42.1959 29.874 42.7013 31.0419C43.7211 33.3974 45.0064 35.8221 46.0211 38.1255C47.0341 40.4243 48.021 42.7436 49.4526 44.6562C50.2052 45.6612 53.1115 46.2012 54.4325 46.7599C55.3587 47.1507 56.876 47.559 57.7529 48.0871C59.4278 49.0978 61.0505 50.3014 62.6228 51.408C63.4078 51.9605 65.8217 53.1743 65.9425 54.1748C62.0499 54.0681 59.0773 54.4311 56.5357 55.5026C55.8136 55.8072 54.6611 55.8157 54.5431 56.7203C54.9402 57.1361 55.002 57.7577 55.3173 58.2693C55.9237 59.2506 56.9486 60.5676 57.8629 61.2573C58.8623 62.0117 59.8912 62.8176 60.962 63.4705C62.8672 64.6315 64.9931 65.2951 66.8274 66.4585C67.9084 67.1448 69.0723 68.0086 70.1256 68.7822C70.6474 69.1651 70.631 69.7601 71.7653 70V69.89C71.1987 69.439 71.2288 68.8163 70.9021 68.3427ZM16.4726 12.0103C15.661 11.995 15.0467 12.0993 14.4795 12.2309V12.3137H14.5918C14.9792 12.8809 15.6627 13.6353 16.1408 14.3205L17.248 16.6505L17.3575 16.5444C18.0432 16.0606 18.3574 15.2904 18.3534 14.1106C18.0795 13.8219 18.0381 13.4606 17.801 13.1157C17.4845 12.6569 16.8714 12.3966 16.4726 12.0103Z" fill="#444444"/>
</svg>
