<svg width="70" height="70" viewBox="0 0 70 70" fill="none" xmlns="http://www.w3.org/2000/svg">
<path d="M29.7641 2.17182L2.17182 29.7591L5.66407 33.2514L33.2514 5.66407L29.7641 2.17182ZM2.17182 40.2359L29.7591 67.8282L33.2514 64.331L5.66407 36.7437L2.17182 40.2359ZM40.2408 67.8232L67.8282 40.2408L64.3359 36.7437L36.7486 64.331L40.2408 67.8232ZM67.8282 29.7542L40.2408 2.17182L36.7486 5.66407L64.3359 33.2514L67.8282 29.7591V29.7542ZM67.8282 40.2408C68.5167 39.5528 69.0629 38.7308 69.4355 37.8316C69.8082 36.9323 70 35.9685 70 34.9951C70 34.0217 69.8082 33.0578 69.4355 32.1585C69.0629 31.2593 68.5167 30.4423 67.8282 29.7542L64.3359 33.2465C64.5659 33.4759 64.7484 33.7484 64.8729 34.0485C64.9974 34.3485 65.0615 34.6702 65.0615 34.9951C65.0615 35.3199 64.9974 35.6416 64.8729 35.9416C64.7484 36.2417 64.5659 36.5142 64.3359 36.7437L67.8282 40.2408ZM29.7591 67.8282C30.4472 68.5167 31.2692 69.0629 32.1684 69.4355C33.0677 69.8082 34.0315 70 35.0049 70C35.9783 70 36.9422 69.8082 37.8415 69.4355C38.7407 69.0629 39.5577 68.5167 40.2458 67.8282L36.7486 64.3359C36.5192 64.5659 36.2516 64.7484 35.9515 64.8729C35.6515 64.9974 35.3298 65.0615 35.0049 65.0615C34.6801 65.0615 34.3584 64.9974 34.0584 64.8729C33.7583 64.7484 33.4858 64.5659 33.2563 64.3359L29.7591 67.8282ZM2.17182 29.7591C1.48329 30.4472 0.937104 31.2692 0.564455 32.1684C0.191805 33.0677 0 34.0315 0 35.0049C0 35.9783 0.191805 36.9422 0.564455 37.8415C0.937104 38.7407 1.48329 39.5577 2.17182 40.2458L5.66407 36.7486C5.43407 36.5192 5.25159 36.2516 5.12708 35.9515C5.00257 35.6515 4.93848 35.3298 4.93848 35.0049C4.93848 34.6801 5.00257 34.3584 5.12708 34.0584C5.25159 33.7583 5.43407 33.4808 5.66407 33.2514L2.17182 29.7591ZM33.2514 5.66901C33.4808 5.43901 33.7534 5.25653 34.0534 5.13202C34.3535 5.00751 34.6751 4.94342 35 4.94342C35.3249 4.94342 35.6465 5.00751 35.9466 5.13202C36.2466 5.25653 36.5192 5.43901 36.7486 5.66901L40.2408 2.17182C39.5528 1.48329 38.7308 0.937104 37.8316 0.564455C36.9323 0.191805 35.9685 0 34.9951 0C34.0217 0 33.0578 0.191805 32.1585 0.564455C31.2593 0.937104 30.4423 1.48329 29.7542 2.17182L33.2465 5.66407L33.2514 5.66901ZM23.3723 12.0558L28.3119 16.9954L31.8091 13.4982L26.8695 8.55864L23.3723 12.0558ZM35 22.6511C34.345 22.6511 33.7168 22.3909 33.2536 21.9278C32.7904 21.4646 32.5302 20.8364 32.5302 20.1814H27.5907C27.5907 22.1465 28.3713 24.031 29.7608 25.4206C31.1503 26.8101 33.0349 27.5907 35 27.5907V22.6511ZM37.4698 20.1814C37.4698 20.8364 37.2096 21.4646 36.7464 21.9278C36.2832 22.3909 35.655 22.6511 35 22.6511V27.5907C36.9651 27.5907 38.8497 26.8101 40.2392 25.4206C41.6287 24.031 42.4093 22.1465 42.4093 20.1814H37.4698ZM35 17.7116C35.655 17.7116 36.2832 17.9718 36.7464 18.435C37.2096 18.8982 37.4698 19.5264 37.4698 20.1814H42.4093C42.4093 18.2163 41.6287 16.3317 40.2392 14.9422C38.8497 13.5527 36.9651 12.7721 35 12.7721V17.7116ZM35 12.7721C33.0349 12.7721 31.1503 13.5527 29.7608 14.9422C28.3713 16.3317 27.5907 18.2163 27.5907 20.1814H32.5302C32.5302 19.5264 32.7904 18.8982 33.2536 18.435C33.7168 17.9718 34.345 17.7116 35 17.7116V12.7721ZM38.1909 26.8695L45.6003 34.2788L49.0925 30.7816L41.6832 23.3723L38.1909 26.8695ZM49.8186 37.4698C49.1636 37.4698 48.5354 37.2096 48.0722 36.7464C47.6091 36.2832 47.3489 35.655 47.3489 35H42.4093C42.4093 36.9651 43.1899 38.8497 44.5794 40.2392C45.969 41.6287 47.8535 42.4093 49.8186 42.4093V37.4698ZM52.2884 35C52.2884 35.655 52.0282 36.2832 51.565 36.7464C51.1018 37.2096 50.4736 37.4698 49.8186 37.4698V42.4093C51.7837 42.4093 53.6683 41.6287 55.0578 40.2392C56.4473 38.8497 57.2279 36.9651 57.2279 35H52.2884ZM49.8186 32.5302C50.4736 32.5302 51.1018 32.7904 51.565 33.2536C52.0282 33.7168 52.2884 34.345 52.2884 35H57.2279C57.2279 33.0349 56.4473 31.1503 55.0578 29.7608C53.6683 28.3713 51.7837 27.5907 49.8186 27.5907V32.5302ZM49.8186 27.5907C47.8535 27.5907 45.969 28.3713 44.5794 29.7608C43.1899 31.1503 42.4093 33.0349 42.4093 35H47.3489C47.3489 34.345 47.6091 33.7168 48.0722 33.2536C48.5354 32.7904 49.1636 32.5302 49.8186 32.5302V27.5907ZM32.5302 25.1209V44.8791H37.4698V25.1209H32.5302ZM35 52.2884C34.345 52.2884 33.7168 52.0282 33.2536 51.565C32.7904 51.1018 32.5302 50.4736 32.5302 49.8186H27.5907C27.5907 51.7837 28.3713 53.6683 29.7608 55.0578C31.1503 56.4473 33.0349 57.2279 35 57.2279V52.2884ZM37.4698 49.8186C37.4698 50.4736 37.2096 51.1018 36.7464 51.565C36.2832 52.0282 35.655 52.2884 35 52.2884V57.2279C36.9651 57.2279 38.8497 56.4473 40.2392 55.0578C41.6287 53.6683 42.4093 51.7837 42.4093 49.8186H37.4698ZM35 47.3489C35.655 47.3489 36.2832 47.6091 36.7464 48.0722C37.2096 48.5354 37.4698 49.1636 37.4698 49.8186H42.4093C42.4093 47.8535 41.6287 45.969 40.2392 44.5794C38.8497 43.1899 36.9651 42.4093 35 42.4093V47.3489ZM35 42.4093C33.0349 42.4093 31.1503 43.1899 29.7608 44.5794C28.3713 45.969 27.5907 47.8535 27.5907 49.8186H32.5302C32.5302 49.1636 32.7904 48.5354 33.2536 48.0722C33.7168 47.6091 34.345 47.3489 35 47.3489V42.4093Z" fill="#444444"/>
</svg>
