<svg width="59" height="70" viewBox="0 0 59 70" fill="none" xmlns="http://www.w3.org/2000/svg">
<path d="M24.7002 61.6156C22.1347 62.2822 19.4263 62.1454 16.941 61.2238C14.4556 60.3022 12.313 58.64 10.8023 56.4619C9.87456 55.1639 9.2153 53.6937 8.86321 52.1376C8.51112 50.5815 8.47328 48.9707 8.75191 47.3998C8.84691 46.8839 8.9775 46.3752 9.14275 45.8773L9.449 44.941L10.2861 45.5535C12.2147 46.9702 14.3709 48.0474 16.6619 48.7385L17.2686 48.9223L17.2102 49.529C17.1374 50.3884 17.3709 51.2459 17.8694 51.9498C18.324 52.6062 18.9691 53.1073 19.7176 53.3853C20.4661 53.6634 21.2819 53.7049 22.0548 53.5044C22.4086 53.4104 22.746 53.2628 23.0552 53.0669L39.3593 42.6777C39.7576 42.4262 40.0991 42.0946 40.3622 41.7039C40.6253 41.3132 40.8043 40.8721 40.8877 40.4086C40.9717 39.935 40.9605 39.4494 40.8548 38.9802C40.7492 38.511 40.5511 38.0675 40.2723 37.6756C39.8174 37.0195 39.1723 36.5187 38.4238 36.2407C37.6754 35.9627 36.8597 35.9209 36.0868 36.1211C35.733 36.215 35.3956 36.3625 35.0864 36.5586L28.8652 40.5252C27.8424 41.1763 26.726 41.6671 25.5548 41.9806C22.9895 42.6475 20.2814 42.5112 17.7961 41.5901C15.3108 40.669 13.1679 39.0075 11.6569 36.8298C10.7291 35.5313 10.0701 34.0606 9.71848 32.5039C9.36688 30.9473 9.3298 29.336 9.60941 27.7648C9.88586 26.2252 10.4805 24.7602 11.3554 23.4634C12.2303 22.1667 13.3661 21.0668 14.6902 20.234L30.9914 9.84196C32.0142 9.19069 33.1306 8.69987 34.3019 8.38655C36.8674 7.71995 39.5757 7.8567 42.0611 8.77835C44.5464 9.69999 46.6891 11.3621 48.1997 13.5403C49.1275 14.8383 49.7868 16.3084 50.1389 17.8645C50.4909 19.4207 50.5288 21.0314 50.2501 22.6023C50.1547 23.1182 50.0242 23.6269 49.8593 24.1248L49.5531 25.0611L48.7189 24.4486C46.7898 23.0303 44.6325 21.9521 42.3402 21.2607L41.7335 21.0769L41.7918 20.4732C41.8649 19.6128 41.6314 18.7543 41.1327 18.0494C40.6777 17.3935 40.0324 16.893 39.2839 16.6155C38.5355 16.338 37.7198 16.2969 36.9473 16.4978C36.5934 16.5918 36.2561 16.7393 35.9468 16.9353L19.6427 27.3244C19.2443 27.5757 18.9026 27.9072 18.6394 28.2979C18.3763 28.6886 18.1975 29.1299 18.1144 29.5936C18.0301 30.0672 18.0411 30.5528 18.1468 31.022C18.2524 31.4913 18.4506 31.9348 18.7298 32.3265C19.1847 32.9826 19.8298 33.4835 20.5782 33.7615C21.3266 34.0394 22.1423 34.0812 22.9152 33.8811C23.2702 33.7863 23.6085 33.6378 23.9185 33.4407L30.1369 29.474C31.1596 28.8235 32.2761 28.3337 33.4473 28.0215C36.0125 27.3546 38.7206 27.4909 41.206 28.412C43.6913 29.3331 45.8341 30.9947 47.3452 33.1723C48.2729 34.4708 48.932 35.9415 49.2836 37.4982C49.6352 39.0549 49.6723 40.6661 49.3927 42.2373C49.1162 43.7773 48.5216 45.2428 47.6468 46.54C46.7719 47.8372 45.6361 48.9377 44.3118 49.771L28.0106 60.1602C26.9879 60.8114 25.8715 61.3023 24.7002 61.6156ZM54.911 9.26155C48.4127 -0.0425979 35.5735 -2.79884 26.2927 3.11614L9.98858 13.5053C7.78679 14.891 5.89833 16.7208 4.44391 18.8779C2.98949 21.0349 2.0011 23.4716 1.54193 26.0323C0.763991 30.3466 1.44757 34.7971 3.48443 38.679C2.08833 40.7952 1.13581 43.1725 0.684432 45.6673C0.220545 48.2796 0.282924 50.9582 0.867909 53.546C1.45289 56.1339 2.54871 58.5789 4.09109 60.7377C10.5923 70.0418 23.4285 72.7981 32.7094 66.886L49.0135 56.4969C51.2155 55.1114 53.1042 53.2816 54.5586 51.1246C56.0131 48.9675 57.0013 46.5306 57.4601 43.9698C58.2383 39.6559 57.5558 35.2056 55.5206 31.3232C56.9147 29.2065 57.8652 26.8292 58.3147 24.3348C58.7797 21.7223 58.7182 19.0432 58.1337 16.4548C57.5492 13.8663 56.4535 11.4207 54.911 9.26155Z" fill="#444444"/>
</svg>
