<svg width="118" height="70" viewBox="0 0 118 70" fill="none" xmlns="http://www.w3.org/2000/svg">
<path d="M10.9122 0C9.47523 0.000633224 8.05254 0.284941 6.72572 0.836615C5.39889 1.38829 4.19403 2.19648 3.18024 3.21482C2.16644 4.23317 1.36366 5.44164 0.817938 6.77092C0.272214 8.10021 -0.00571559 9.52415 8.90816e-05 10.9611V47.4997C-0.000554896 48.9393 0.282522 50.3649 0.83314 51.695C1.38376 53.0252 2.19112 54.2338 3.20908 55.2517C4.22704 56.2697 5.43563 57.0771 6.76578 57.6277C8.09593 58.1783 9.52156 58.4614 10.9612 58.4607H56.3L77.0217 70L72.3079 58.4607H106.637C112.693 58.4607 117.598 53.5608 117.598 47.4997V10.9611C117.598 4.9048 112.698 0 106.637 0H10.9122ZM50.5034 6.42377C51.4632 6.44303 52.3878 6.78868 53.1248 7.40375C53.5548 7.7281 53.9102 8.14085 54.1672 8.61418C54.4241 9.08752 54.5766 9.61044 54.6144 10.1477C54.6787 10.9455 54.512 11.745 54.1342 12.4507C52.2624 15.9149 50.7239 21.7311 49.4744 29.8061C48.269 37.6459 47.8378 43.7512 48.1269 48.1268C48.2249 49.3273 48.0289 50.3808 47.5487 51.2971C47.3118 51.7826 46.952 52.1977 46.505 52.5011C46.058 52.8045 45.5395 52.9857 45.0008 53.0267C43.7513 53.1247 42.4528 52.5466 41.2034 51.253C36.7298 46.6814 33.1724 39.8558 30.5755 30.7714C28.2281 35.3656 25.9201 39.9798 23.6519 44.6136C20.8198 50.0525 18.4139 52.8356 16.3952 52.9826C15.0967 53.0806 13.9942 51.9733 13.0289 49.6654C10.579 43.3641 7.93303 31.2026 5.09599 13.1709C4.94899 11.9215 5.19399 10.819 5.86527 9.9517C6.53656 9.04032 7.55084 8.56013 8.89341 8.46213C11.3434 8.26614 12.7398 9.42251 13.0779 11.9215C14.5675 21.9712 16.2041 30.4823 17.9337 37.45L28.4636 17.4094C29.424 15.5817 30.6245 14.6164 32.07 14.5233C34.1818 14.3763 35.4803 15.7238 36.0095 18.5608C37.2148 24.9552 38.7534 30.3892 40.5762 35.0049C41.8257 22.7943 43.9424 13.9941 46.9216 8.56013C47.6467 7.21756 48.7002 6.54137 50.0967 6.44827C50.2335 6.43508 50.3708 6.42854 50.5083 6.42867L50.5034 6.42377ZM68.7996 11.6324C69.6179 11.6324 70.4803 11.7304 71.3966 11.9264C73.0094 12.2327 74.5349 12.8908 75.8645 13.8537C77.1942 14.8166 78.2953 16.0607 79.0894 17.4976C80.628 20.0945 81.3924 23.2206 81.3924 26.9691C81.4359 31.7655 80.1376 36.4786 77.6439 40.5761C74.7628 45.3829 71.0095 47.7887 66.3497 47.7887C65.4764 47.782 64.6061 47.6851 63.7527 47.4997C60.3375 46.7794 57.7895 44.9517 56.0599 41.9236C54.5213 39.2776 53.752 36.1074 53.752 32.4031C53.752 27.4542 55.0015 22.9315 57.5004 18.845C60.4355 14.0382 64.1839 11.6324 68.7996 11.6324ZM98.9438 11.6324C99.7621 11.6324 100.624 11.7304 101.541 11.9264C104.951 12.6417 107.499 14.4743 109.234 17.4976C110.772 20.0945 111.537 23.2206 111.537 26.9691C111.58 31.7655 110.282 36.4786 107.788 40.5761C104.907 45.3829 101.154 47.7887 96.4939 47.7887C95.6206 47.782 94.7503 47.6851 93.8969 47.4997C90.4817 46.7794 87.9337 44.9517 86.2041 41.9236C84.6655 39.2776 83.8962 36.1074 83.8962 32.4031C83.8962 27.4542 85.1457 22.9315 87.6446 18.845C90.5797 14.0382 94.3281 11.6324 98.9438 11.6324ZM69.0201 19.6927C67.5158 19.6829 66.0508 20.6776 64.6641 22.7404C63.4353 24.4555 62.5683 26.4027 62.1161 28.4635C61.8775 29.6174 61.7641 30.7937 61.7781 31.9719C61.7781 33.3634 62.0721 34.8579 62.6453 36.3475C63.3656 38.2192 64.326 39.2335 65.4824 39.4736C66.6829 39.7137 67.9813 39.1796 69.3778 37.9301C71.1565 36.3475 72.3569 33.9906 73.0282 30.8155C73.2732 29.713 73.3663 28.5125 73.3663 27.2582C73.3501 25.759 73.0578 24.2757 72.5039 22.8825C71.7788 21.0108 70.8184 20.0014 69.662 19.7613C69.4506 19.7187 69.2357 19.6957 69.0201 19.6927ZM99.1643 19.6927C97.66 19.6829 96.195 20.6776 94.8083 22.7404C93.5795 24.4555 92.7126 26.4027 92.2604 28.4635C92.0203 29.566 91.9223 30.7665 91.9223 31.9719C91.9223 33.3634 92.2163 34.8579 92.7895 36.3475C93.5098 38.2192 94.4751 39.2335 95.6266 39.4736C96.8271 39.7137 98.1255 39.1796 99.522 37.9301C101.301 36.3475 102.501 33.9906 103.172 30.8155C103.368 29.713 103.515 28.5125 103.515 27.2582C103.498 25.7587 103.204 24.2754 102.648 22.8825C101.923 21.0108 100.963 20.0014 99.8062 19.7613C99.5948 19.7187 99.3799 19.6957 99.1643 19.6927Z" fill="#444444"/>
</svg>
