<svg width="71" height="70" viewBox="0 0 71 70" fill="none" xmlns="http://www.w3.org/2000/svg">
<path d="M35.5 0C16.215 0 0.5 15.715 0.5 35C0.5 54.285 16.215 70 35.5 70C54.785 70 70.5 54.285 70.5 35C70.5 15.715 54.785 0 35.5 0ZM4.035 35C4.035 30.45 5.015 26.11 6.765 22.19L21.78 63.315C11.28 58.205 4.035 47.46 4.035 35ZM35.5 66.465C32.42 66.465 29.445 66.01 26.61 65.17L36.06 37.73L45.72 64.225C45.79 64.365 45.86 64.54 45.93 64.645C42.675 65.835 39.175 66.465 35.5 66.465ZM39.84 20.23C41.73 20.125 43.445 19.915 43.445 19.915C45.125 19.705 44.95 17.22 43.235 17.325C43.235 17.325 38.125 17.71 34.835 17.71C31.755 17.71 26.54 17.325 26.54 17.325C24.86 17.255 24.65 19.845 26.365 19.95C26.365 19.95 27.975 20.16 29.655 20.265L34.555 33.705L27.66 54.355L16.215 20.23C18.105 20.16 19.82 19.95 19.82 19.95C21.5 19.74 21.325 17.255 19.61 17.36C19.61 17.36 14.5 17.745 11.21 17.745C10.615 17.745 9.915 17.745 9.18 17.71C14.85 9.17 24.51 3.535 35.5 3.535C43.69 3.535 51.145 6.65 56.745 11.795C56.605 11.795 56.465 11.76 56.325 11.76C53.245 11.76 51.04 14.455 51.04 17.36C51.04 19.95 52.545 22.155 54.12 24.745C55.31 26.845 56.71 29.54 56.71 33.425C56.71 36.12 55.66 39.235 54.33 43.61L51.18 54.11L39.84 20.23ZM63.115 19.915C67.0462 27.1097 68.0133 35.555 65.8102 43.4521C63.6071 51.3493 58.4079 58.0743 51.32 62.195L60.945 34.405C62.73 29.925 63.325 26.32 63.325 23.135C63.325 21.98 63.255 20.895 63.115 19.915Z" fill="#444444"/>
</svg>
