<svg width="71" height="51" viewBox="0 0 71 51" fill="none" xmlns="http://www.w3.org/2000/svg">
<path d="M70.875 43.9165V6.4165C70.875 2.95817 68.0833 0.166504 64.625 0.166504H6.25C2.79167 0.166504 0 2.95817 0 6.4165V43.9165C0 47.3748 2.79167 50.1665 6.25 50.1665H64.625C68.0833 50.1665 70.875 47.3748 70.875 43.9165ZM65.4167 5.95817C66.7917 7.33317 66.0417 8.74984 65.2917 9.45817L48.375 24.9582L64.625 41.8748C65.125 42.4582 65.4583 43.3748 64.875 43.9998C64.3333 44.6665 63.0833 44.6248 62.5417 44.2082L44.3333 28.6665L35.4167 36.7915L26.5417 28.6665L8.33333 44.2082C7.79167 44.6248 6.54167 44.6665 6 43.9998C5.41667 43.3748 5.75 42.4582 6.25 41.8748L22.5 24.9582L5.58333 9.45817C4.83333 8.74984 4.08333 7.33317 5.45833 5.95817C6.83333 4.58317 8.25 5.24984 9.41667 6.24984L35.4167 27.2498L61.4583 6.24984C62.625 5.24984 64.0417 4.58317 65.4167 5.95817Z" fill="#DDDDDD"/>
</svg>
