<svg width="34" height="51" viewBox="0 0 34 51" fill="none" xmlns="http://www.w3.org/2000/svg">
<path opacity="0.6" d="M16.6696 0.83374H8.33417C6.12381 0.83374 4.00398 1.7118 2.44102 3.27476C0.878062 4.83772 0 6.95755 0 9.16791C0 11.3783 0.878062 13.4981 2.44102 15.0611C4.00398 16.624 6.12381 17.5021 8.33417 17.5021H16.6696V0.83374Z" fill="#EEEEEE"/>
<path opacity="0.4" d="M16.6696 17.4998H8.33417C6.12381 17.4998 4.00398 18.3778 2.44102 19.9408C0.878062 21.5037 0 23.6236 0 25.8339C0 28.0443 0.878062 30.1641 2.44102 31.7271C4.00398 33.29 6.12381 34.1681 8.33417 34.1681H16.6696V17.4998Z" fill="#EEEEEE"/>
<path d="M33.3354 25.8349C33.3354 28.0453 32.4574 30.1651 30.8944 31.728C29.3315 33.291 27.2116 34.1691 25.0013 34.1691C22.7909 34.1691 20.6711 33.291 19.1081 31.728C17.5452 30.1651 16.6671 28.0453 16.6671 25.8349C16.6671 23.6245 17.5452 21.5047 19.1081 19.9418C20.6711 18.3788 22.7909 17.5007 25.0013 17.5007C27.2116 17.5007 29.3315 18.3788 30.8944 19.9418C32.4574 21.5047 33.3354 23.6245 33.3354 25.8349Z" fill="#EEEEEE"/>
<path opacity="0.2" d="M8.3342 34.1705H16.6696V42.5034C16.6691 44.1513 16.1801 45.762 15.2642 47.132C14.3484 48.5019 13.047 49.5696 11.5244 50.2C10.0019 50.8304 8.32661 50.9952 6.71042 50.6736C5.09422 50.352 3.60967 49.5584 2.44444 48.3931C1.27921 47.2279 0.485632 45.7434 0.164024 44.1272C-0.157583 42.511 0.00722659 40.8357 0.637615 39.3132C1.268 37.7906 2.33567 36.4892 3.70562 35.5734C5.07558 34.6575 6.68632 34.171 8.3342 34.1705Z" fill="#EEEEEE"/>
<path opacity="0.8" d="M16.6671 0.83374H25C27.2104 0.83374 29.3302 1.7118 30.8932 3.27476C32.4561 4.83772 33.3342 6.95755 33.3342 9.16791C33.3342 11.3783 32.4561 13.4981 30.8932 15.0611C29.3302 16.624 27.2104 17.5021 25 17.5021H16.6671V0.83374Z" fill="#EEEEEE"/>
</svg>
