<svg width="52" height="51" viewBox="0 0 52 51" fill="none" xmlns="http://www.w3.org/2000/svg">
<path d="M25.6207 0.166504C22.2561 0.166504 18.9245 0.829202 15.8161 2.11676C12.7076 3.40432 9.88322 5.29153 7.50412 7.67063C2.69931 12.4754 0 18.9922 0 25.7872C0 37.1115 7.35313 46.7193 17.5245 50.1268C18.8056 50.3318 19.2155 49.5375 19.2155 48.8458V44.5159C12.1186 46.0531 10.607 41.0827 10.607 41.0827C9.42841 38.1107 7.76306 37.3165 7.76306 37.3165C5.43158 35.728 7.94241 35.7792 7.94241 35.7792C10.5045 35.9586 11.8624 38.4182 11.8624 38.4182C14.0914 42.3125 17.8576 41.1596 19.318 40.5447C19.5486 38.8793 20.2147 37.752 20.9321 37.1115C15.2443 36.471 9.27468 34.2676 9.27468 24.5061C9.27468 21.6623 10.2483 19.382 11.9136 17.5629C11.6574 16.9224 10.7607 14.2579 12.1698 10.7991C12.1698 10.7991 14.322 10.1073 19.2155 13.4124C21.2395 12.8487 23.4429 12.5669 25.6207 12.5669C27.7984 12.5669 30.0018 12.8487 32.0258 13.4124C36.9194 10.1073 39.0715 10.7991 39.0715 10.7991C40.4807 14.2579 39.5839 16.9224 39.3277 17.5629C40.9931 19.382 41.9667 21.6623 41.9667 24.5061C41.9667 34.2932 35.9714 36.4454 30.258 37.0859C31.1804 37.8801 32.0258 39.443 32.0258 41.8257V48.8458C32.0258 49.5375 32.4358 50.3574 33.7424 50.1268C43.9138 46.6936 51.2413 37.1115 51.2413 25.7872C51.2413 22.4226 50.5787 19.091 49.2911 15.9826C48.0035 12.8741 46.1163 10.0497 43.7372 7.67063C41.3581 5.29153 38.5337 3.40432 35.4253 2.11676C32.3168 0.829202 28.9852 0.166504 25.6207 0.166504Z" fill="#DDDDDD"/>
</svg>
