<svg width="50" height="51" viewBox="0 0 50 51" fill="none" xmlns="http://www.w3.org/2000/svg">
<path d="M44.4444 0.166504C45.9179 0.166504 47.3309 0.751819 48.3728 1.79369C49.4147 2.83556 50 4.24863 50 5.72206V44.6109C50 46.0844 49.4147 47.4974 48.3728 48.5393C47.3309 49.5812 45.9179 50.1665 44.4444 50.1665H5.55556C4.08213 50.1665 2.66905 49.5812 1.62718 48.5393C0.585316 47.4974 0 46.0844 0 44.6109V5.72206C0 4.24863 0.585316 2.83556 1.62718 1.79369C2.66905 0.751819 4.08213 0.166504 5.55556 0.166504H44.4444ZM43.0556 43.2221V28.4998C43.0556 26.0982 42.1015 23.7948 40.4032 22.0966C38.705 20.3983 36.4017 19.4443 34 19.4443C31.6389 19.4443 28.8889 20.8887 27.5556 23.0554V19.9721H19.8056V43.2221H27.5556V29.5276C27.5556 27.3887 29.2778 25.6387 31.4167 25.6387C32.4481 25.6387 33.4372 26.0484 34.1665 26.7778C34.8958 27.5071 35.3056 28.4962 35.3056 29.5276V43.2221H43.0556ZM10.7778 15.6109C12.0155 15.6109 13.2024 15.1193 14.0776 14.2441C14.9528 13.3689 15.4444 12.182 15.4444 10.9443C15.4444 8.36095 13.3611 6.24984 10.7778 6.24984C9.53273 6.24984 8.33868 6.74443 7.4583 7.62481C6.57792 8.50519 6.08333 9.69924 6.08333 10.9443C6.08333 13.5276 8.19444 15.6109 10.7778 15.6109ZM14.6389 43.2221V19.9721H6.94444V43.2221H14.6389Z" fill="#DDDDDD"/>
</svg>
